<?xml version="1.0" encoding="UTF-8" standalone="no"?>
<svg
   xmlns:dc="http://purl.org/dc/elements/1.1/"
   xmlns:cc="http://creativecommons.org/ns#"
   xmlns:rdf="http://www.w3.org/1999/02/22-rdf-syntax-ns#"
   xmlns:svg="http://www.w3.org/2000/svg"
   xmlns="http://www.w3.org/2000/svg"
   xmlns:sodipodi="http://sodipodi.sourceforge.net/DTD/sodipodi-0.dtd"
   xmlns:inkscape="http://www.inkscape.org/namespaces/inkscape"
   width="512"
   height="512"
   viewBox="0 0 511.99999 511.99999"
   id="svg2"
   version="1.1"
   inkscape:version="1.0.1 (3bc2e813f5, 2020-09-07)"
   sodipodi:docname="logo.svg">
  <defs
     id="defs4" />
  <sodipodi:namedview
     id="base"
     pagecolor="#ffffff"
     bordercolor="#666666"
     borderopacity="1.0"
     inkscape:pageopacity="0.0"
     inkscape:pageshadow="2"
     inkscape:zoom="1.979899"
     inkscape:cx="189.40652"
     inkscape:cy="284.98357"
     inkscape:document-units="px"
     inkscape:current-layer="g6431"
     showgrid="true"
     units="px"
     inkscape:window-width="1900"
     inkscape:window-height="1157"
     inkscape:window-x="1376"
     inkscape:window-y="33"
     inkscape:window-maximized="0"
     inkscape:snap-bbox="false"
     objecttolerance="20"
     inkscape:object-nodes="true"
     inkscape:snap-object-midpoints="true"
     inkscape:document-rotation="0">
    <inkscape:grid
       type="xygrid"
       id="grid4136"
       empspacing="8" />
  </sodipodi:namedview>
  <metadata
     id="metadata7">
    <rdf:RDF>
      <cc:Work
         rdf:about="">
        <dc:format>image/svg+xml</dc:format>
        <dc:type
           rdf:resource="http://purl.org/dc/dcmitype/StillImage" />
        <dc:title />
      </cc:Work>
    </rdf:RDF>
  </metadata>
  <g
     inkscape:label="Layer 1"
     inkscape:groupmode="layer"
     id="layer1"
     transform="translate(0,-540.36219)">
    <g
       id="g6431"
       transform="matrix(0.70710678,-0.70710678,0.70710678,0.70710678,-487.7191,432.22292)">
      <path
         style="opacity:1;fill:#000000;fill-opacity:1;stroke:none;stroke-width:11.1304;stroke-linecap:round;stroke-linejoin:round;stroke-miterlimit:4;stroke-dasharray:none;stroke-opacity:1"
         d="M 449.42281,602.35483 C 349.13812,502.07014 188.03011,501.70886 88.193088,601.54588 l -1.617892,1.61789 c -99.837031,99.83703 -99.475751,260.94504 0.808946,361.22978 100.284688,100.28485 261.392698,100.64615 361.229728,0.8089 l 1.6179,-1.6178 c 99.83702,-99.83712 99.47574,-260.94513 -0.80896,-361.22982 z m -35.41682,35.41682 c 31.70422,31.70422 50.88908,71.20643 57.57924,112.35312 a 33.39132,33.39132 0 0 1 30.55739,33.25132 33.39132,33.39132 0 0 1 -30.55355,33.24746 c -6.69041,41.14613 -25.87927,80.64925 -57.58309,112.35315 -31.70382,31.70385 -71.20505,50.89075 -112.35118,57.58115 a 33.39132,33.39132 0 0 1 -33.25131,30.55745 33.39132,33.39132 0 0 1 -33.24941,-30.55935 c -41.1467,-6.6901 -80.64889,-25.875 -112.35311,-57.57925 C 91.097285,897.273 71.910281,857.77142 65.219812,816.62548 A 33.39132,33.39132 0 0 1 34.664335,783.37609 33.39132,33.39132 0 0 1 65.221724,750.12477 c 6.690155,-41.14669 25.875027,-80.6489 57.579236,-112.35312 31.70382,-31.70381 71.20699,-50.89268 112.35313,-57.58308 a 33.39132,33.39132 0 0 1 33.24939,-30.55547 33.39132,33.39132 0 0 1 33.24939,30.55932 c 41.14651,6.69022 80.64904,25.87516 112.35312,57.57923 z m -7.8704,7.87041 c -29.79964,-29.79964 -66.82282,-47.9277 -105.41272,-54.39342 a 33.39132,33.39132 0 0 1 -32.31939,25.16761 33.39132,33.39132 0 0 1 -32.33476,-25.16761 c -38.58376,6.46819 -75.6021,24.59816 -105.39735,54.39342 -29.79966,29.79966 -47.927717,66.82278 -54.393417,105.41272 a 33.39132,33.39132 0 0 1 25.167617,32.31938 33.39132,33.39132 0 0 1 -25.165695,32.33283 c 6.467672,38.58507 24.595315,75.60311 54.391505,105.39931 29.79964,29.79965 66.8228,47.92775 105.41272,54.39335 a 33.39132,33.39132 0 0 1 32.31939,-25.1676 33.39132,33.39132 0 0 1 32.33283,25.1658 c 38.5851,-6.4677 75.60304,-24.5953 105.39926,-54.39155 29.7987,-29.7987 47.9291,-66.82223 54.39535,-105.41082 a 33.39132,33.39132 0 0 1 -25.16953,-32.32131 33.39132,33.39132 0 0 1 25.16569,-32.33284 c -6.46768,-38.58508 -24.59532,-75.60308 -54.3915,-105.39927 z m -79.41501,23.48824 a 19.480209,19.480209 0 0 1 5.68568,14.0672 l -10e-4,36.17581 36.17389,1e-5 a 19.480209,19.480209 0 0 1 19.75479,19.18219 19.480209,19.480209 0 0 1 -19.7548,19.77401 h -36.17388 v 50.08546 l 36.17389,-2e-5 a 19.480209,19.480209 0 0 1 19.75479,19.18604 19.480209,19.480209 0 0 1 -19.75479,19.77018 h -36.17391 l 2e-5,36.17392 a 19.480209,19.480209 0 0 1 -19.18411,19.7567 19.480209,19.480209 0 0 1 -19.7721,-19.7567 V 847.37118 H 243.3636 v 36.17392 a 19.480209,19.480209 0 0 1 -19.18656,19.7548 19.480209,19.480209 0 0 1 -19.77209,-19.7529 l 10e-6,-36.17392 -36.17198,-10e-4 a 19.480209,19.480209 0 1 1 -1e-5,-38.9562 l 36.17198,-10e-4 -1e-5,-50.08161 -36.17388,10e-6 a 19.480209,19.480209 0 1 1 -1e-5,-38.95621 l 36.17197,-10e-4 1e-5,-36.17389 a 19.480209,19.480209 0 1 1 38.95621,10e-6 l 0.001,36.17579 h 50.08546 l 0.001,-36.17579 a 19.480209,19.480209 0 0 1 33.27053,-14.06722 z m -33.27437,89.20114 h -50.08546 l 1e-5,50.08545 50.08545,1e-5 z"
         id="rect4148" />
    </g>
  </g>
</svg>
